<?xml version="1.0" standalone="no"?>
<!DOCTYPE svg PUBLIC "-//W3C//DTD SVG 20010904//EN"
 "http://www.w3.org/TR/2001/REC-SVG-20010904/DTD/svg10.dtd">
<svg version="1.0" xmlns="http://www.w3.org/2000/svg"
 width="211.000000pt" height="234.000000pt" viewBox="0 0 211.000000 234.000000"
 preserveAspectRatio="xMidYMid meet">
<metadata>
Created by potrace 1.10, written by Peter Selinger 2001-2011
</metadata>
<g transform="translate(0.000000,234.000000) scale(0.050000,-0.050000)"
fill="#ffffff" stroke="none">
<path d="M1779 4639 c-64 -121 -62 -491 3 -650 l25 -59 14 100 c8 55 38 169
67 254 63 184 64 215 12 317 -45 87 -87 101 -121 38z"/>
<path d="M1280 4401 c-64 -121 184 -611 365 -721 81 -50 111 -51 69 -4 -45 49
-85 170 -126 378 -64 322 -224 503 -308 347z"/>
<path d="M3061 3322 c588 -121 859 -270 859 -472 0 -570 -2465 -784 -3454
-299 -429 210 -384 465 114 642 235 84 253 122 21 46 -1229 -404 -471 -1025
1309 -1073 1955 -51 3045 628 1704 1062 -186 61 -644 153 -749 151 -44 -1 37
-25 196 -57z"/>
<path d="M1317 3192 c-998 -152 -841 -538 243 -601 147 -8 133 -4 -101 28
-660 90 -899 238 -618 381 565 289 2500 154 2304 -160 -14 -22 -17 -40 -6 -40
78 0 75 148 -4 207 -224 170 -1236 273 -1818 185z"/>
<path d="M1259 2995 c-122 -62 -129 -119 -21 -174 377 -192 1549 -127 1518 85
-7 48 -141 134 -206 132 -31 0 -25 -8 24 -32 243 -121 -81 -255 -614 -255
-558 1 -839 127 -590 266 79 43 -19 24 -111 -22z"/>
<path d="M260 1255 l0 -715 125 0 125 0 -7 249 c-6 248 -6 249 50 320 75 93
54 114 247 -249 l170 -319 145 -1 c140 0 166 10 126 51 -10 10 -49 73 -86 139
-38 66 -133 231 -212 367 -173 300 -184 221 77 573 122 163 218 298 215 301
-3 2 -73 0 -155 -6 l-151 -10 -173 -262 c-95 -145 -187 -292 -205 -328 -51
-102 -54 -85 -50 267 l4 331 -122 4 -123 3 0 -715z"/>
<path d="M1640 1587 c-144 -27 -243 -72 -230 -104 7 -18 18 -58 24 -89 9 -42
19 -53 44 -42 194 84 312 82 381 -5 76 -96 57 -147 -55 -147 -357 0 -584 -295
-419 -542 107 -159 450 -179 507 -29 17 44 48 18 48 -40 0 -46 7 -49 107 -49
l106 0 -8 375 c-10 469 -36 558 -185 635 -61 32 -240 52 -320 37z m260 -649
c0 -196 -165 -313 -280 -198 -107 107 -23 265 160 301 123 25 120 28 120 -103z"/>
<path d="M2640 1587 c-144 -27 -243 -72 -230 -104 7 -18 18 -58 24 -89 9 -42
19 -53 44 -42 215 92 350 84 399 -24 47 -103 32 -128 -73 -128 -353 0 -582
-297 -419 -542 107 -159 450 -179 507 -29 17 44 48 18 48 -40 0 -46 7 -49 111
-49 l111 0 -8 385 c-9 463 -34 542 -197 627 -59 30 -238 50 -317 35z m261
-552 c-1 -8 -1 -61 -1 -117 0 -124 -76 -218 -178 -218 -154 0 -197 227 -57
303 81 44 238 65 236 32z"/>
<path d="M3780 1563 c-38 -20 -90 -72 -115 -115 l-44 -78 -1 105 0 105 -110 0
-110 0 0 -520 0 -520 130 0 130 0 0 325 c0 403 63 526 251 491 28 -5 33 13 34
114 0 140 -38 162 -165 93z"/>
<path d="M2143 290 c-23 -38 -34 -70 -25 -70 9 0 9 -42 -1 -93 -9 -52 -12 -99
-6 -105 18 -18 44 37 57 121 9 55 23 77 47 78 32 0 32 2 -2 28 -36 27 -35 29
5 54 52 33 54 57 4 57 -22 0 -55 -29 -79 -70z"/>
<path d="M3111 335 c-37 -124 -58 -315 -34 -315 13 0 83 273 83 325 0 25 -41
16 -49 -10z"/>
<path d="M3212 335 c-40 -139 -55 -344 -22 -312 7 7 70 305 70 332 0 18 -43 0
-48 -20z"/>
<path d="M220 325 c-1 -8 -14 -77 -30 -154 -29 -135 -26 -177 8 -140 16 18 62
227 62 282 0 28 -40 39 -40 12z"/>
<path d="M631 315 c-20 -67 -53 -280 -44 -289 20 -20 53 18 53 61 0 33 17 50
65 64 77 23 118 107 76 158 -31 37 -139 42 -150 6z m122 -45 c14 -36 -26 -90
-65 -90 -28 0 -39 82 -15 107 24 23 68 14 80 -17z"/>
<path d="M2352 305 c-8 -31 -52 -262 -52 -279 0 -3 36 -6 80 -6 44 0 80 9 80
20 0 11 -22 20 -50 20 -40 0 -50 10 -50 50 0 42 9 50 60 50 33 0 60 9 60 20 0
11 -22 20 -50 20 -27 0 -50 8 -50 18 0 53 29 82 82 82 32 0 58 9 58 20 0 37
-156 23 -168 -15z"/>
<path d="M1692 262 c-19 -21 -25 -41 -14 -45 13 -5 14 -34 2 -86 -20 -92 -13
-111 44 -111 34 0 37 5 16 30 -33 39 -9 170 31 170 24 0 25 7 4 40 -31 49 -40
50 -83 2z"/>
<path d="M291 167 c-8 -50 -19 -104 -25 -120 -6 -16 3 -27 22 -27 22 0 32 18
32 56 0 60 49 144 84 144 14 0 17 -34 8 -100 -21 -160 24 -134 57 32 16 80
-32 128 -91 92 -23 -15 -38 -16 -38 -4 0 61 -38 6 -49 -73z"/>
<path d="M830 237 c-7 -17 -14 -70 -16 -119 l-4 -88 75 -1 c82 0 86 5 106 138
9 63 6 93 -9 93 -12 0 -22 -11 -22 -25 0 -80 -44 -175 -81 -175 -45 0 -46 6
-19 99 20 71 -6 140 -30 78z"/>
<path d="M1042 144 c-12 -61 -18 -115 -13 -119 19 -20 51 20 51 63 0 26 18 69
40 97 51 65 50 70 -8 70 -42 0 -50 -14 -70 -111z"/>
<path d="M1204 236 c-32 -32 -30 -56 8 -99 39 -42 23 -102 -21 -85 -17 7 -31
2 -31 -10 0 -33 91 -27 121 9 21 25 18 41 -20 91 l-44 61 41 11 c23 6 42 19
42 28 0 26 -68 22 -96 -6z"/>
<path d="M1353 198 c-31 -151 -20 -178 65 -175 78 3 78 3 100 114 12 60 18
114 13 118 -20 20 -51 -21 -51 -67 0 -68 -34 -128 -73 -128 -25 0 -28 17 -17
100 15 110 -17 142 -37 38z"/>
<path d="M1594 245 c-24 -39 -37 -225 -16 -225 12 0 22 11 23 25 0 14 8 63 17
110 15 76 0 131 -24 90z"/>
<path d="M1919 219 c-69 -69 -48 -187 36 -195 57 -6 69 2 98 64 63 132 -36
229 -134 131z m108 -29 c7 -17 3 -53 -7 -80 -24 -63 -100 -70 -100 -9 0 94 80
160 107 89z"/>
<path d="M2520 251 c0 -5 10 -31 23 -59 18 -41 15 -58 -21 -104 -51 -65 -39
-89 20 -37 39 36 42 36 61 4 32 -58 56 -39 34 26 -19 53 -16 68 24 110 25 27
39 56 31 64 -9 8 -32 -5 -52 -30 -45 -55 -53 -56 -66 -5 -9 33 -54 59 -54 31z"/>
<path d="M2758 240 c-53 -31 -85 -129 -59 -178 23 -43 121 -60 121 -22 0 11
-18 20 -40 20 -71 0 -55 118 20 146 33 13 60 30 60 38 0 22 -63 19 -102 -4z"/>
<path d="M2902 208 c-75 -96 -45 -188 62 -188 71 0 73 35 3 44 -70 8 -88 56
-21 56 58 0 100 44 90 94 -11 58 -86 55 -134 -6z m98 -18 c0 -17 -18 -30 -40
-30 -40 0 -52 21 -27 47 25 24 67 13 67 -17z"/>
<path d="M3302 208 c-72 -91 -46 -188 51 -188 65 0 77 36 14 44 -77 9 -78 44
-2 67 51 15 65 30 65 69 0 73 -73 78 -128 8z"/>
<path d="M3490 240 c-3 -5 -12 -57 -20 -115 -16 -124 19 -148 40 -26 13 81 54
133 87 113 10 -6 11 -48 2 -97 -8 -47 -12 -89 -7 -94 32 -32 80 167 51 214
-14 22 -140 27 -153 5z"/>
<path d="M3758 240 c-53 -31 -85 -129 -59 -178 23 -43 121 -60 121 -22 0 11
-18 20 -40 20 -71 0 -55 118 20 146 33 13 60 30 60 38 0 22 -63 19 -102 -4z"/>
<path d="M3902 208 c-75 -96 -45 -188 62 -188 71 0 73 35 3 44 -70 8 -88 56
-21 56 58 0 100 44 90 94 -11 58 -86 55 -134 -6z"/>
</g>
</svg>
