<?xml version="1.0" standalone="no"?>
<!DOCTYPE svg PUBLIC "-//W3C//DTD SVG 20010904//EN"
 "http://www.w3.org/TR/2001/REC-SVG-20010904/DTD/svg10.dtd">
<svg version="1.0" xmlns="http://www.w3.org/2000/svg"
 width="211.000000pt" height="234.000000pt" viewBox="0 0 211.000000 234.000000"
 preserveAspectRatio="xMidYMid meet">
<metadata>
Created by potrace 1.16, written by Peter Selinger 2001-2019
</metadata>
<g transform="translate(0.000000,234.000000) scale(0.100000,-0.100000)"
fill="#FFFFFF" stroke="none">
<path d="M894 2316 c-23 -37 -31 -179 -14 -261 l12 -59 34 100 c41 121 44 181
10 220 l-23 28 -19 -28z"/>
<path d="M647 2213 c-26 -25 11 -159 68 -248 32 -51 122 -141 131 -132 3 3 -2
19 -11 37 -9 17 -27 82 -40 144 -25 123 -43 166 -77 190 -23 16 -60 21 -71 9z"/>
<path d="M1665 1635 c240 -71 334 -160 280 -264 -28 -54 -167 -128 -311 -165
-159 -41 -299 -58 -529 -63 -258 -6 -403 4 -592 42 -414 84 -547 248 -307 382
74 41 64 42 -24 3 -88 -40 -138 -75 -162 -115 -115 -187 296 -351 930 -371
655 -22 1204 140 1149 339 -20 75 -165 157 -366 208 -138 35 -180 37 -68 4z"/>
<path d="M710 1599 c-192 -23 -319 -61 -364 -108 -35 -36 -29 -62 22 -96 48
-33 62 -32 23 1 -38 31 -39 56 -5 83 161 126 903 142 1134 23 44 -22 56 -34
61 -57 5 -30 5 -30 13 -6 19 56 -91 112 -289 147 -106 19 -481 27 -595 13z"/>
<path d="M624 1491 c-43 -26 -49 -39 -29 -61 79 -87 625 -99 748 -16 46 31 46
51 -2 75 -50 26 -60 27 -30 2 20 -16 22 -23 13 -38 -36 -58 -177 -88 -384 -80
-151 6 -236 22 -279 55 -34 25 -36 37 -12 61 26 26 16 27 -25 2z"/>
<path d="M130 625 l0 -355 60 0 60 0 0 122 c0 115 1 124 26 160 15 21 29 38
33 38 3 0 44 -70 90 -156 45 -85 89 -158 96 -160 6 -3 39 -4 73 -2 l61 3 -43
75 c-24 41 -75 131 -115 199 -39 69 -70 129 -68 135 3 6 43 64 90 128 48 65
94 129 103 143 l16 25 -73 0 -74 0 -105 -161 -105 -160 -3 160 -2 161 -60 0
-60 0 0 -355z"/>
<path d="M820 794 c-40 -8 -94 -26 -107 -36 -8 -7 -9 -17 -1 -41 6 -18 12 -33
13 -35 1 -1 30 5 64 14 73 18 113 12 141 -23 34 -43 27 -61 -27 -68 -158 -22
-233 -82 -233 -188 0 -136 136 -202 254 -122 l36 24 6 -24 c6 -23 11 -25 58
-25 l53 0 -4 188 c-3 103 -9 201 -14 219 -13 42 -44 80 -79 98 -31 16 -120 26
-160 19z m130 -328 c0 -63 -24 -101 -70 -111 -29 -6 -68 7 -82 29 -11 16 -10
64 2 86 16 29 60 49 108 50 l42 0 0 -54z"/>
<path d="M1320 794 c-14 -3 -45 -12 -68 -21 -43 -15 -44 -16 -37 -52 9 -50 11
-51 46 -34 17 9 56 16 86 17 48 1 57 -2 79 -27 39 -45 32 -65 -23 -72 -158
-22 -233 -82 -233 -188 0 -136 136 -202 254 -122 l36 24 6 -24 c6 -23 11 -25
61 -25 l55 0 -4 193 c-3 117 -10 204 -17 222 -15 37 -47 72 -83 91 -29 15
-118 25 -158 18z m130 -330 c0 -48 -4 -59 -29 -85 -36 -36 -73 -37 -106 -4
-60 59 -6 144 93 145 l42 0 0 -56z"/>
<path d="M1915 793 c-31 -8 -69 -39 -85 -69 l-15 -27 -5 44 -5 44 -52 3 -53 3
0 -260 0 -261 65 0 65 0 0 160 c0 127 3 167 16 191 15 31 66 59 104 59 18 0
20 6 20 60 0 64 -2 66 -55 53z"/>
</g>
</svg>
